<?xml version="1.0" encoding="utf-8"?>
<!-- Generator: Adobe Illustrator 24.1.1, SVG Export Plug-In . SVG Version: 6.00 Build 0)  -->
<svg version="1.1" id="Layer_1" xmlns="http://www.w3.org/2000/svg" xmlns:xlink="http://www.w3.org/1999/xlink" x="0px" y="0px"
	 viewBox="0 0 341.9 341.7" style="enable-background:new 0 0 341.9 341.7;" xml:space="preserve">
<style type="text/css">
	.st0{fill:#FFFFFF;}
</style>
<g id="Layer_2_1_">
	<g id="Layer_1-2">
		<path class="st0" d="M315.9,109.6l-0.3-0.8l-44.9-12h40.5l-0.9-2.1c-2.8-6.4-9.2-17.9-10-19.2l-0.3-0.5l-54.9-22.9h20.4L297,69.9
			l-4.3-5.8C266.1,28.3,225,6,180.5,3.2l-1.6-0.1v1.4l-8,40.3l-8-40.3V3.1l-1.6,0.1C116.7,6,75.7,28.3,49.1,64.1l-4.3,5.8l31.4-17.8
			h20.4L41.6,75l-0.3,0.5c-0.7,1.3-7.2,12.8-10,19.2l-0.9,2.1h40.4l-44.6,12l-0.2,0.1l-0.3,0.8c-7.1,23-8.7,47.3-4.6,71l0.5,3
			L47.4,156l29.9-10l-23.3,15.6l-27.1,37.5h-1.3l0.6,2c5.3,16.6,13.4,32.1,24,45.9l1.6,2.1l14.7-34.3l30.7-18.8l-20.6,25.2l-0.2,0.3
			l-11.1,42.3l-0.1,0.2l0.7,0.6c14.5,13.9,31.6,24.8,50.3,32l6.6,2.6l-4.8-4.8l-6.2-24.9l11.6-25l-2.2,25.5v0.1l12.9,32.1l0.1,0.2
			l0.8,0.2c11.7,2.8,23.6,4.2,35.6,4.2h0.3c12,0,24-1.4,35.6-4.2l0.8-0.2l12.9-32.2v-0.1l-2.2-25.5l11.6,25l-6.2,24.8l-5.2,5
			l7.1-2.7c18.7-7.2,35.9-18.1,50.4-32l0.6-0.6l-11.1-42.4v-0.1L244.5,196l30.7,18.8l14.7,34.3l1.6-2.1c10.6-13.8,18.7-29.3,24-45.9
			l0.6-2h-1.2l-27-37.4v-0.1l-23.3-15.6l29.9,10l25.6,27.6l0.5-3C324.7,157,323.1,132.6,315.9,109.6z M285.6,163.9l26.8,37
			c-4.9,15.1-12.3,29.3-21.7,42.1l-13-30.3l-46.9-28.7l31.8,38.8l10.5,40.1c-13.3,12.6-28.9,22.7-45.9,29.6l5.8-23.3v-0.1
			l-19.3-41.7l3.6,42.1l-12,30.1c-11.2,2.6-22.7,4-34.1,4h-0.3c-11.5,0-23-1.3-34.2-4l-12.1-30.2l3.6-42.1l-19.2,41.6l-0.1,0.1
			l5.9,23.5c-17-6.9-32.6-17-46-29.6l10.5-40.1l31.8-38.8l-46.8,28.7l-0.1,0.1l-13,30.4c-9.5-12.8-16.8-27-21.7-42.1l26.8-37
			L96,137.3l22.5,13.8v14.1l-7,6.9v21.7l20.8,14.3l36.4-23.5l1.2-0.8v-15.7l-14.6-12.2h30.9l-14.6,12.2v15.7l37.6,24.3l20.8-14.3
			v-21.7l-7-7v-14.1l22.6-13.8L285.6,163.9z M151.1,112l-33.9-13.3H97V76.1l32.7-20.7h17.7l23.5,21l23.5-21h17.7l32.7,20.7v22.5
			h-20.1l-34,13.4l9.4,40.2v-33.8l27.7,1.5l19.7-13.5v26.3l-27.1,16.6l-0.2,0.1v17.1l7,7v18.8l-17.7,12.3l-34.6-22.3v-12.7
			l19.9-16.6H147l19.9,16.6v12.6l-34.6,22.3l-17.7-12.3v-18.8l6.9-7v-17.1l-27.2-16.7v-26.3l19.6,13.5l0.1,0.1l27.7-1.5v33.8
			L151.1,112z M318,177l-22-23.6l-49.7-16.5l2.8-1.7l1.3-0.8v-33.8l-23.6,16.2l-29.8-1.6v10.6l-2.8-11.9l31-12.2h22.6V74.4
			l-34.2-21.6l-0.7-0.4h-19.7l-22.3,20l-22.3-19.9h-19.8L94,74.4v27.3h22.7l31,12.2l-2.8,11.9v-10.6l-29.8,1.6l-23.6-16.2v33.8
			l4.1,2.5l-49.8,16.5l-22,23.6c-3.3-22-1.7-44.4,4.8-65.7L94,93.7H35.2c2.8-5.9,7.5-14.4,8.6-16.3l68-28.3H75.4L56.2,59.9
			C82.1,28.7,119.6,9.3,160.1,6.3l10.8,54.1l10.8-54.1c40.5,3,78,22.4,103.9,53.6l-19.1-10.8h-0.1H230l68,28.3
			c1.1,2,5.8,10.4,8.6,16.3h-58.8l65.4,17.6c4.3,14.1,6.4,28.7,6.4,43.4C319.7,162.2,319.1,169.7,318,177z"/>
		<path class="st0" d="M189.7,197.8h-37.6l-17,10.9v35.9l26.7,24.2l9.1-20.7l9.1,20.7l26.7-24.2v-36L189.7,197.8z M138.1,243.2
			v-32.9l14.8-9.5h35.9l14.8,9.5v32.9L181,263.7l-10.2-23.1l-10.2,23.1L138.1,243.2z"/>
	</g>
</g>
</svg>
